<svg xmlns="http://www.w3.org/2000/svg" version="1.1" xmlnsXlink="http://www.w3.org/1999/xlink" xmlnssvgjs="http://svgjs.dev/svgjs" width="1000" height="191" viewBox="0 0 1000 191"><g transform="matrix(1,0,0,1,-0.6060606060605096,0.6242980436914678)"><svg viewBox="0 0 396 76" data-background-color="#0d0d0d" preserveAspectRatio="xMidYMid meet" height="191" width="1000" xmlns="http://www.w3.org/2000/svg" xmlnsXlink="http://www.w3.org/1999/xlink"><g id="tight-bounds" transform="matrix(1,0,0,1,0.23999999999995225,-0.2484117870185969)"><svg viewBox="0 0 395.52 76.49682357403717" height="76.49682357403717" width="395.52"><g><svg viewBox="0 0 512.523528977311 99.1262691487669" height="76.49682357403717" width="395.52"><g transform="matrix(1,0,0,1,117.00352897731105,11.699777374701668)"><svg viewBox="0 0 395.52 75.72671439936356" height="75.72671439936356" width="395.52"><g><svg viewBox="0 0 395.52 75.72671439936356" height="75.72671439936356" width="395.52"><g><svg viewBox="0 0 395.52 75.72671439936356" height="75.72671439936356" width="395.52"><g transform="matrix(1,0,0,1,0,0)"><svg width="395.52" viewBox="3.4 -35.5 188.54 36.1" height="75.72671439936356" data-palette-color="#ffffff"><path d="M26.75 0L26.75-18.2 27.15-24.05 26.35-24.05 24.2-18.5 18.4-5.85 12.65-18.5 10.5-24.05 9.7-24.05 10.1-18.2 10.1 0 3.4 0 3.4-34.9 10.9-34.9 15.65-24.5 18.25-17.05 18.75-17.05 21.35-24.5 26-34.9 33.45-34.9 33.45 0 26.75 0ZM40.1-34.9L47.25-34.9 47.25-12.25Q47.25-8.8 48.42-7.28 49.6-5.75 52.65-5.75L52.65-5.75Q55.7-5.75 56.87-7.28 58.05-8.8 58.05-12.25L58.05-12.25 58.05-34.9 65.2-34.9 65.2-13.2Q65.2-9.5 64.55-6.9 63.9-4.3 62.42-2.63 60.95-0.95 58.55-0.18 56.15 0.6 52.65 0.6L52.65 0.6Q49.15 0.6 46.75-0.18 44.35-0.95 42.87-2.63 41.4-4.3 40.75-6.9 40.1-9.5 40.1-13.2L40.1-13.2 40.1-34.9ZM71.8 0L71.8-34.9 84.05-34.9Q87.25-34.9 89.77-33.93 92.3-32.95 94.05-30.85 95.8-28.75 96.75-25.45 97.7-22.15 97.7-17.45L97.7-17.45Q97.7-12.75 96.75-9.45 95.8-6.15 94.05-4.05 92.3-1.95 89.77-0.98 87.25 0 84.05 0L84.05 0 71.8 0ZM78.95-6.25L84.05-6.25Q90.1-6.25 90.1-13.25L90.1-13.25 90.1-21.65Q90.1-28.65 84.05-28.65L84.05-28.65 78.95-28.65 78.95-6.25ZM103.09-34.9L110.24-34.9 110.24-12.25Q110.24-8.8 111.42-7.28 112.59-5.75 115.64-5.75L115.64-5.75Q118.69-5.75 119.87-7.28 121.04-8.8 121.04-12.25L121.04-12.25 121.04-34.9 128.19-34.9 128.19-13.2Q128.19-9.5 127.54-6.9 126.89-4.3 125.42-2.63 123.94-0.95 121.54-0.18 119.14 0.6 115.64 0.6L115.64 0.6Q112.14 0.6 109.74-0.18 107.34-0.95 105.87-2.63 104.39-4.3 103.74-6.9 103.09-9.5 103.09-13.2L103.09-13.2 103.09-34.9ZM147.59 0.6L147.59 0.6Q144.44 0.6 141.87-0.35 139.29-1.3 137.47-3.4 135.64-5.5 134.62-8.9 133.59-12.3 133.59-17.2L133.59-17.2Q133.59-22.1 134.62-25.58 135.64-29.05 137.47-31.25 139.29-33.45 141.87-34.48 144.44-35.5 147.59-35.5L147.59-35.5Q152.29-35.5 155.02-33.48 157.74-31.45 159.49-27.35L159.49-27.35 153.29-24.15Q152.99-25.25 152.62-26.2 152.24-27.15 151.59-27.8 150.94-28.45 149.97-28.83 148.99-29.2 147.59-29.2L147.59-29.2Q144.59-29.2 142.89-27.4 141.19-25.6 141.19-22L141.19-22 141.19-12.9Q141.19-9.3 142.89-7.5 144.59-5.7 147.59-5.7L147.59-5.7Q148.99-5.7 150.02-6.13 151.04-6.55 151.74-7.28 152.44-8 152.89-8.97 153.34-9.95 153.69-11.1L153.69-11.1 159.59-7.7Q158.69-5.75 157.59-4.2 156.49-2.65 155.07-1.58 153.64-0.5 151.79 0.05 149.94 0.6 147.59 0.6ZM183.54 0L175.44-15.45 171.39-9.95 171.39 0 164.24 0 164.24-34.9 171.39-34.9 171.39-23.6 171.09-18.05 171.89-18.05 175.34-23.6 182.94-34.9 191.04-34.9 180.49-20.35 191.94 0 183.54 0Z" opacity="1" transform="matrix(1,0,0,1,0,0)" fill="#ffffff" class="undefined-text-0" data-fill-palette-color="primary" id="text-0"></path></svg></g></svg></g></svg></g></svg></g><g><svg viewBox="0 0 99.1262691487669 99.1262691487669" height="99.1262691487669" width="99.1262691487669"><g><svg xmlns="http://www.w3.org/2000/svg" xmlnslink="http://www.w3.org/1999/xlink" version="1.1" x="0" y="0" viewBox="0 0 16 16" style="enable-background:new 0 0 16 16;" xmlSpace="preserve" height="99.1262691487669" width="99.1262691487669" class="icon-icon-0" data-fill-palette-color="accent" id="icon-0"><g fill="#ffffff" data-fill-palette-color="accent"><path d="M9 0H7 6 0v8.262 2.233V16h6c0-2.816-1.458-5.285-3.659-6.708C4.648 7.684 6.3 5.062 6.814 2h2.371c0.515 3.062 2.166 5.684 4.473 7.292C11.458 10.715 10 13.184 10 16h6v-5.505V8.262 0h-5H9zM3.657 14H2v-2.461C2.757 12.213 3.323 13.06 3.657 14zM2 7.01V2h2.78C4.379 3.979 3.392 5.747 2 7.01zM14 14h-1.657c0.334-0.94 0.9-1.787 1.657-2.461V14zM14 2v5.01C12.608 5.747 11.621 3.979 11.22 2H14z" fill="#ffffff" data-fill-palette-color="accent"></path></g></svg></g></svg></g></svg></g><defs></defs></svg><rect width="395.52" height="76.49682357403717" fill="none" stroke="none" visibility="hidden"></rect></g></svg></g></svg>